<svg width="88" height="73" viewBox="0 0 88 73" fill="none" xmlns="http://www.w3.org/2000/svg">
<path d="M45.0162 27.84L40.7412 26.5575L34.9699 23.7787H28.7712L25.5649 28.695V35.9625L30.2674 40.8787L34.1149 44.085L37.9624 48.5737L42.4512 52.4212L46.2987 52.635L51.4287 47.0775L59.9787 38.955L64.0399 33.3975L63.1849 26.5575L54.8487 22.71L50.3599 23.565L46.9399 27.84H45.0162Z" fill="#EB494E"/>
<rect x="40.1" y="46.65" width="4.275" height="4.275" fill="#EB494E"/>
<rect x="44.375" y="46.65" width="4.275" height="4.275" fill="#EB494E"/>
<rect x="48.65" y="42.375" width="4.275" height="4.275" fill="#EB494E"/>
<rect x="52.925" y="38.1" width="4.275" height="4.275" fill="#EB494E"/>
<rect x="35.825" y="43.23" width="4.275" height="4.275" fill="#EB494E"/>
<rect x="31.55" y="38.1" width="4.275" height="4.275" fill="#EB494E"/>
<rect x="57.2" y="33.825" width="4.275" height="4.275" fill="#EB494E"/>
<rect x="27.275" y="35.535" width="4.275" height="4.275" fill="#EB494E"/>
<rect x="57.2" y="24.42" width="4.275" height="4.275" fill="#EB494E"/>
<rect x="48.65" y="25.275" width="4.275" height="4.275" fill="#EB494E"/>
<rect x="35.825" y="24.42" width="4.275" height="4.275" fill="#EB494E"/>
<rect x="27.275" y="25.275" width="4.275" height="4.275" fill="#EB494E"/>
<path d="M31.55 21H35.825V25.275H31.55V21Z" fill="#33312E"/>
<path d="M40.1 25.275H44.375V29.55H40.1V25.275Z" fill="#33312E"/>
<path d="M44.375 25.275H48.65V29.55H44.375V25.275Z" fill="#33312E"/>
<path d="M40.1 50.925H44.375V55.2H40.1V50.925Z" fill="#33312E"/>
<path d="M27.275 38.1H31.55V42.375H27.275V38.1Z" fill="#33312E"/>
<path d="M31.55 42.375H35.825V46.65H31.55V42.375Z" fill="#33312E"/>
<path d="M48.65 46.65H52.925V50.925H48.65V46.65Z" fill="#33312E"/>
<path d="M35.825 46.65H40.1V50.925H35.825V46.65Z" fill="#33312E"/>
<path d="M52.925 42.375H57.2V46.65H52.925V42.375Z" fill="#33312E"/>
<path d="M57.2 38.1H61.475V42.375H57.2V38.1Z" fill="#33312E"/>
<path d="M44.375 50.925H48.65V55.2H44.375V50.925Z" fill="#33312E"/>
<path d="M35.825 21H40.1V25.275H35.825V21Z" fill="#33312E"/>
<path d="M27.275 21H31.55V25.275H27.275V21Z" fill="#33312E"/>
<path d="M52.925 21H57.2V25.275H52.925V21Z" fill="#33312E"/>
<path d="M57.2 21H61.475V25.275H57.2V21Z" fill="#33312E"/>
<path d="M48.65 21H52.925V25.275H48.65V21Z" fill="#33312E"/>
<path d="M61.475 33.825V29.55H65.75V33.825H61.475Z" fill="#33312E"/>
<path d="M61.475 38.1V33.825H65.75V38.1H61.475Z" fill="#33312E"/>
<path d="M61.475 29.55V25.275H65.75V29.55H61.475Z" fill="#33312E"/>
<path d="M23 33.825V29.55H27.275V33.825H23Z" fill="#33312E"/>
<path d="M23 38.1V33.825H27.275V38.1H23Z" fill="#33312E"/>
<path d="M23 29.55V25.275H27.275V29.55H23Z" fill="#33312E"/>
<path d="M23.2937 58C23.4879 58.7765 23.5849 59.747 23.5849 60.9117C23.5849 62.0279 23.4879 62.9985 23.2937 63.8234H14.5586C14.3645 62.9985 14.2674 62.0279 14.2674 60.9117C14.2674 59.747 14.3645 58.7765 14.5586 58H11.6469C11.4528 57.175 11.3557 56.2044 11.3557 55.0883C11.3557 53.9236 11.4528 52.953 11.6469 52.1766C11.4528 51.3516 11.3557 50.381 11.3557 49.2648C11.3557 48.1002 11.4528 47.1296 11.6469 46.3531C11.4528 45.5281 11.3557 44.5576 11.3557 43.4414C11.3557 42.2767 11.4528 41.3061 11.6469 40.5297H5.82344C5.62932 39.7047 5.53227 38.7341 5.53227 37.618C5.53227 36.4533 5.62932 35.4827 5.82344 34.7063H11.6469C11.4528 33.8813 11.3557 32.9107 11.3557 31.7945C11.3557 30.6298 11.4528 29.6593 11.6469 28.8828C11.4528 28.0578 11.3557 27.0873 11.3557 25.9711C11.3557 24.8064 11.4528 23.8358 11.6469 23.0594C11.4528 22.2344 11.3557 21.2638 11.3557 20.1477C11.3557 18.983 11.4528 18.0124 11.6469 17.2359H14.5586C14.3645 16.411 14.2674 15.4404 14.2674 14.3242C14.2674 13.1595 14.3645 12.189 14.5586 11.4125H23.2937C23.4879 12.189 23.5849 13.1595 23.5849 14.3242C23.5849 15.4404 23.4879 16.411 23.2937 17.2359H17.4703C17.6644 18.0124 17.7615 18.983 17.7615 20.1477C17.7615 21.2638 17.6644 22.2344 17.4703 23.0594C17.6644 23.8358 17.7615 24.8064 17.7615 25.9711C17.7615 27.0873 17.6644 28.0578 17.4703 28.8828C17.6644 29.6593 17.7615 30.6298 17.7615 31.7945C17.7615 32.9107 17.6644 33.8813 17.4703 34.7063H14.5586C14.7527 35.4827 14.8498 36.4533 14.8498 37.618C14.8498 38.7341 14.7527 39.7047 14.5586 40.5297H17.4703C17.6644 41.3061 17.7615 42.2767 17.7615 43.4414C17.7615 44.5576 17.6644 45.5281 17.4703 46.3531C17.6644 47.1296 17.7615 48.1002 17.7615 49.2648C17.7615 50.381 17.6644 51.3516 17.4703 52.1766C17.6644 52.953 17.7615 53.9236 17.7615 55.0883C17.7615 56.2044 17.6644 57.175 17.4703 58H23.2937ZM81.8762 37.618C81.8762 38.7341 81.7791 39.7047 81.585 40.5297H75.7615C75.9557 41.3061 76.0527 42.2767 76.0527 43.4414C76.0527 44.5576 75.9557 45.5281 75.7615 46.3531C75.9557 47.1296 76.0527 48.1002 76.0527 49.2648C76.0527 50.381 75.9557 51.3516 75.7615 52.1766C75.9557 52.953 76.0527 53.9236 76.0527 55.0883C76.0527 56.2044 75.9557 57.175 75.7615 58H72.8498C73.0439 58.7765 73.141 59.747 73.141 60.9117C73.141 62.0279 73.0439 62.9985 72.8498 63.8234H64.1147C63.9206 62.9985 63.8235 62.0279 63.8235 60.9117C63.8235 59.747 63.9206 58.7765 64.1147 58H69.9381C69.744 57.175 69.6469 56.2044 69.6469 55.0883C69.6469 53.9236 69.744 52.953 69.9381 52.1766C69.744 51.3516 69.6469 50.381 69.6469 49.2648C69.6469 48.1002 69.744 47.1296 69.9381 46.3531C69.744 45.5281 69.6469 44.5576 69.6469 43.4414C69.6469 42.2767 69.744 41.3061 69.9381 40.5297H72.8498C72.6557 39.7047 72.5587 38.7341 72.5587 37.618C72.5587 36.4533 72.6557 35.4827 72.8498 34.7063H69.9381C69.744 33.8813 69.6469 32.9107 69.6469 31.7945C69.6469 30.6298 69.744 29.6593 69.9381 28.8828C69.744 28.0578 69.6469 27.0873 69.6469 25.9711C69.6469 24.8064 69.744 23.8358 69.9381 23.0594C69.744 22.2344 69.6469 21.2638 69.6469 20.1477C69.6469 18.983 69.744 18.0124 69.9381 17.2359H64.1147C63.9206 16.411 63.8235 15.4404 63.8235 14.3242C63.8235 13.1595 63.9206 12.189 64.1147 11.4125H72.8498C73.0439 12.189 73.141 13.1595 73.141 14.3242C73.141 15.4404 73.0439 16.411 72.8498 17.2359H75.7615C75.9557 18.0124 76.0527 18.983 76.0527 20.1477C76.0527 21.2638 75.9557 22.2344 75.7615 23.0594C75.9557 23.8358 76.0527 24.8064 76.0527 25.9711C76.0527 27.0873 75.9557 28.0578 75.7615 28.8828C75.9557 29.6593 76.0527 30.6298 76.0527 31.7945C76.0527 32.9107 75.9557 33.8813 75.7615 34.7063H81.585C81.7791 35.4827 81.8762 36.4533 81.8762 37.618Z" fill="#33312E"/>
</svg>
